# xmcd
#
# Track frame offsets: 
#        150
#        16025
#        39054
#        59318
#        76421
#        93706
#        108870
#        132134
#        166401
#        187246
#        209942
#        235643
#        249472
#        269155
#        285120
#        304894
#        322852
#        337816
#
# Disc length: 4828 seconds
#
# Revision: 0
# Processed by: cddbd v1.5.2PL0 Copyright (c) Steve Scherf et al.
# Submitted via: ExactAudioCopy v0.95b4
#
DISCID=f212da12
DTITLE=Blackmores Night - Eighty Minutes Till Midnight
DYEAR=2001
DGENRE=Alt. Rock
TTITLE0=The times they are changing
TTITLE1=Shadow of the moon
TTITLE2=Crowing of the king
TTITLE3=Greensleves
TTITLE4=Benzai ten
TTITLE5=Past time with good company
TTITLE6=Again someday
TTITLE7=Fires of midnight
TTITLE8=March the heroes home
TTITLE9=Wish you were here
TTITLE10=Ghost of the rose
TTITLE11=Way to mandalay
TTITLE12=Ivory tower
TTITLE13=Lorelay
TTITLE14=Under a violet moon
TTITLE15=Play minstrel play
TTITLE16=Self portrait
TTITLE17=Home again
EXTD=
EXTT0=
EXTT1=
EXTT2=
EXTT3=
EXTT4=
EXTT5=
EXTT6=
EXTT7=
EXTT8=
EXTT9=
EXTT10=
EXTT11=
EXTT12=
EXTT13=
EXTT14=
EXTT15=
EXTT16=
EXTT17=
PLAYORDER=
